<svg id="my-svg" width="100%" xmlns="http://www.w3.org/2000/svg" xmlns:xlink="http://www.w3.org/1999/xlink" class="flowchart" style="max-width: 1356.37px; background-color: rgb(30, 30, 30);" viewBox="0.0000019073486328125 0 1356.37060546875 222" role="graphics-document document" aria-roledescription="flowchart-v2"><style>#my-svg{font-family:"trebuchet ms",verdana,arial,sans-serif;font-size:16px;fill:#ccc;}@keyframes edge-animation-frame{from{stroke-dashoffset:0;}}@keyframes dash{to{stroke-dashoffset:0;}}#my-svg .edge-animation-slow{stroke-dasharray:9,5!important;stroke-dashoffset:900;animation:dash 50s linear infinite;stroke-linecap:round;}#my-svg .edge-animation-fast{stroke-dasharray:9,5!important;stroke-dashoffset:900;animation:dash 20s linear infinite;stroke-linecap:round;}#my-svg .error-icon{fill:#a44141;}#my-svg .error-text{fill:#ddd;stroke:#ddd;}#my-svg .edge-thickness-normal{stroke-width:1px;}#my-svg .edge-thickness-thick{stroke-width:3.5px;}#my-svg .edge-pattern-solid{stroke-dasharray:0;}#my-svg .edge-thickness-invisible{stroke-width:0;fill:none;}#my-svg .edge-pattern-dashed{stroke-dasharray:3;}#my-svg .edge-pattern-dotted{stroke-dasharray:2;}#my-svg .marker{fill:#a0a0a0;stroke:#a0a0a0;}#my-svg .marker.cross{stroke:#a0a0a0;}#my-svg svg{font-family:"trebuchet ms",verdana,arial,sans-serif;font-size:16px;}#my-svg p{margin:0;}#my-svg .label{font-family:"trebuchet ms",verdana,arial,sans-serif;color:#ccc;}#my-svg .cluster-label text{fill:#F9FFFE;}#my-svg .cluster-label span{color:#F9FFFE;}#my-svg .cluster-label span p{background-color:transparent;}#my-svg .label text,#my-svg span{fill:#ccc;color:#ccc;}#my-svg .node rect,#my-svg .node circle,#my-svg .node ellipse,#my-svg .node polygon,#my-svg .node path{fill:#1f2020;stroke:#ccc;stroke-width:1px;}#my-svg .rough-node .label text,#my-svg .node .label text,#my-svg .image-shape .label,#my-svg .icon-shape .label{text-anchor:middle;}#my-svg .node .katex path{fill:#000;stroke:#000;stroke-width:1px;}#my-svg .rough-node .label,#my-svg .node .label,#my-svg .image-shape .label,#my-svg .icon-shape .label{text-align:center;}#my-svg .node.clickable{cursor:pointer;}#my-svg .root .anchor path{fill:#a0a0a0!important;stroke-width:0;stroke:#a0a0a0;}#my-svg .arrowheadPath{fill:lightgrey;}#my-svg .edgePath .path{stroke:#a0a0a0;stroke-width:1px;}#my-svg .flowchart-link{stroke:#a0a0a0;fill:none;}#my-svg .edgeLabel{background-color:hsl(0, 0%, 34.4117647059%);text-align:center;}#my-svg .edgeLabel p{background-color:hsl(0, 0%, 34.4117647059%);}#my-svg .edgeLabel rect{opacity:0.5;background-color:hsl(0, 0%, 34.4117647059%);fill:hsl(0, 0%, 34.4117647059%);}#my-svg .labelBkg{background-color:rgba(87.75, 87.75, 87.75, 0.5);}#my-svg .cluster rect{fill:hsl(180, 1.5873015873%, 28.3529411765%);stroke:rgba(255, 255, 255, 0.25);stroke-width:1px;}#my-svg .cluster text{fill:#F9FFFE;}#my-svg .cluster span{color:#F9FFFE;}#my-svg div.mermaidTooltip{position:absolute;text-align:center;max-width:200px;padding:2px;font-family:"trebuchet ms",verdana,arial,sans-serif;font-size:12px;background:hsl(20, 1.5873015873%, 12.3529411765%);border:1px solid rgba(255, 255, 255, 0.25);border-radius:2px;pointer-events:none;z-index:100;}#my-svg .flowchartTitleText{text-anchor:middle;font-size:18px;fill:#ccc;}#my-svg rect.text{fill:none;stroke-width:0;}#my-svg .icon-shape,#my-svg .image-shape{background-color:hsl(0, 0%, 34.4117647059%);text-align:center;}#my-svg .icon-shape p,#my-svg .image-shape p{background-color:hsl(0, 0%, 34.4117647059%);padding:2px;}#my-svg .icon-shape .label rect,#my-svg .image-shape .label rect{opacity:0.5;background-color:hsl(0, 0%, 34.4117647059%);fill:hsl(0, 0%, 34.4117647059%);}#my-svg .label-icon{display:inline-block;height:1em;overflow:visible;vertical-align:-0.125em;}#my-svg .node .label-icon path{fill:currentColor;stroke:revert;stroke-width:revert;}#my-svg .node .neo-node{stroke:#ccc;}#my-svg [data-look="neo"].node rect,#my-svg [data-look="neo"].cluster rect,#my-svg [data-look="neo"].node polygon{stroke:url(#my-svg-gradient);filter:drop-shadow( 1px 2px 2px rgba(185,185,185,1));}#my-svg [data-look="neo"].node path{stroke:url(#my-svg-gradient);stroke-width:1px;}#my-svg [data-look="neo"].node .outer-path{filter:drop-shadow( 1px 2px 2px rgba(185,185,185,1));}#my-svg [data-look="neo"].node .neo-line path{stroke:#ccc;filter:none;}#my-svg [data-look="neo"].node circle{stroke:url(#my-svg-gradient);filter:drop-shadow( 1px 2px 2px rgba(185,185,185,1));}#my-svg [data-look="neo"].node circle .state-start{fill:#000000;}#my-svg [data-look="neo"].icon-shape .icon{fill:url(#my-svg-gradient);filter:drop-shadow( 1px 2px 2px rgba(185,185,185,1));}#my-svg [data-look="neo"].icon-shape .icon-neo path{stroke:url(#my-svg-gradient);filter:drop-shadow( 1px 2px 2px rgba(185,185,185,1));}#my-svg svg{background-color:#1e1e1e!important;padding:1rem!important;border-radius:8px!important;}#my-svg .edgeLabel rect{fill:#1e1e1e!important;}#my-svg text,#my-svg tspan{fill:#ffffff!important;}#my-svg :root{--mermaid-font-family:"trebuchet ms",verdana,arial,sans-serif;}</style><g><marker id="my-svg_flowchart-v2-pointEnd" class="marker flowchart-v2" viewBox="0 0 10 10" refX="5" refY="5" markerUnits="userSpaceOnUse" markerWidth="8" markerHeight="8" orient="auto"><path d="M 0 0 L 10 5 L 0 10 z" class="arrowMarkerPath" style="stroke-width: 1; stroke-dasharray: 1, 0;"/></marker><marker id="my-svg_flowchart-v2-pointStart" class="marker flowchart-v2" viewBox="0 0 10 10" refX="4.5" refY="5" markerUnits="userSpaceOnUse" markerWidth="8" markerHeight="8" orient="auto"><path d="M 0 5 L 10 10 L 10 0 z" class="arrowMarkerPath" style="stroke-width: 1; stroke-dasharray: 1, 0;"/></marker><marker id="my-svg_flowchart-v2-pointEnd-margin" class="marker flowchart-v2" viewBox="0 0 11.5 14" refX="11.5" refY="7" markerUnits="userSpaceOnUse" markerWidth="10.5" markerHeight="14" orient="auto"><path d="M 0 0 L 11.5 7 L 0 14 z" class="arrowMarkerPath" style="stroke-width: 0; stroke-dasharray: 1, 0;"/></marker><marker id="my-svg_flowchart-v2-pointStart-margin" class="marker flowchart-v2" viewBox="0 0 11.5 14" refX="1" refY="7" markerUnits="userSpaceOnUse" markerWidth="11.5" markerHeight="14" orient="auto"><polygon points="0,7 11.5,14 11.5,0" class="arrowMarkerPath" style="stroke-width: 0; stroke-dasharray: 1, 0;"/></marker><marker id="my-svg_flowchart-v2-circleEnd" class="marker flowchart-v2" viewBox="0 0 10 10" refX="11" refY="5" markerUnits="userSpaceOnUse" markerWidth="11" markerHeight="11" orient="auto"><circle cx="5" cy="5" r="5" class="arrowMarkerPath" style="stroke-width: 1; stroke-dasharray: 1, 0;"/></marker><marker id="my-svg_flowchart-v2-circleStart" class="marker flowchart-v2" viewBox="0 0 10 10" refX="-1" refY="5" markerUnits="userSpaceOnUse" markerWidth="11" markerHeight="11" orient="auto"><circle cx="5" cy="5" r="5" class="arrowMarkerPath" style="stroke-width: 1; stroke-dasharray: 1, 0;"/></marker><marker id="my-svg_flowchart-v2-circleEnd-margin" class="marker flowchart-v2" viewBox="0 0 10 10" refY="5" refX="12.25" markerUnits="userSpaceOnUse" markerWidth="14" markerHeight="14" orient="auto"><circle cx="5" cy="5" r="5" class="arrowMarkerPath" style="stroke-width: 0; stroke-dasharray: 1, 0;"/></marker><marker id="my-svg_flowchart-v2-circleStart-margin" class="marker flowchart-v2" viewBox="0 0 10 10" refX="-2" refY="5" markerUnits="userSpaceOnUse" markerWidth="14" markerHeight="14" orient="auto"><circle cx="5" cy="5" r="5" class="arrowMarkerPath" style="stroke-width: 0; stroke-dasharray: 1, 0;"/></marker><marker id="my-svg_flowchart-v2-crossEnd" class="marker cross flowchart-v2" viewBox="0 0 11 11" refX="12" refY="5.2" markerUnits="userSpaceOnUse" markerWidth="11" markerHeight="11" orient="auto"><path d="M 1,1 l 9,9 M 10,1 l -9,9" class="arrowMarkerPath" style="stroke-width: 2; stroke-dasharray: 1, 0;"/></marker><marker id="my-svg_flowchart-v2-crossStart" class="marker cross flowchart-v2" viewBox="0 0 11 11" refX="-1" refY="5.2" markerUnits="userSpaceOnUse" markerWidth="11" markerHeight="11" orient="auto"><path d="M 1,1 l 9,9 M 10,1 l -9,9" class="arrowMarkerPath" style="stroke-width: 2; stroke-dasharray: 1, 0;"/></marker><marker id="my-svg_flowchart-v2-crossEnd-margin" class="marker cross flowchart-v2" viewBox="0 0 15 15" refX="17.7" refY="7.5" markerUnits="userSpaceOnUse" markerWidth="12" markerHeight="12" orient="auto"><path d="M 1,1 L 14,14 M 1,14 L 14,1" class="arrowMarkerPath" style="stroke-width: 2.5;"/></marker><marker id="my-svg_flowchart-v2-crossStart-margin" class="marker cross flowchart-v2" viewBox="0 0 15 15" refX="-3.5" refY="7.5" markerUnits="userSpaceOnUse" markerWidth="12" markerHeight="12" orient="auto"><path d="M 1,1 L 14,14 M 1,14 L 14,1" class="arrowMarkerPath" style="stroke-width: 2.5; stroke-dasharray: 1, 0;"/></marker><g class="root"><g class="clusters"/><g class="edgePaths"><path d="M63.839,83.5L67.923,83.417C72.006,83.333,80.173,83.167,87.756,83.083C95.339,83,102.339,83,105.839,83L109.339,83" id="my-svg-L_DRAFT_PROP_0" class="edge-thickness-normal edge-pattern-solid edge-thickness-normal edge-pattern-solid flowchart-link" style="stroke:#27ae60;stroke-width:2px;fill:none;;;stroke:#27ae60;stroke-width:2px;fill:none" data-edge="true" data-et="edge" data-id="L_DRAFT_PROP_0" data-points="W3sieCI6NjMuODM5MzM3NDMxODI2NTM2LCJ5Ijo4My41fSx7IngiOjg4LjMzOTMzNjM5NTI2MzY3LCJ5Ijo4M30seyJ4IjoxMTMuMzM5MzM2Mzk1MjYzNjcsInkiOjgzfV0=" data-look="classic" marker-end="url(#my-svg_flowchart-v2-pointEnd__27ae60)"/><path d="M260.527,61.507L281.36,55.422C302.194,49.338,343.86,37.169,384.864,33.226C425.868,29.282,466.208,33.565,486.379,35.706L506.549,37.847" id="my-svg-L_PROP_REC_0" class="edge-thickness-normal edge-pattern-solid edge-thickness-normal edge-pattern-solid flowchart-link" style="stroke:#27ae60;stroke-width:2px;fill:none;;;stroke:#27ae60;stroke-width:2px;fill:none" data-edge="true" data-et="edge" data-id="L_PROP_REC_0" data-points="W3sieCI6MjYwLjUyNjgzNjM5NTI2MzcsInkiOjYxLjUwNjY4NzY0NzUyMTY0fSx7IngiOjM4NS41MjY4MzYzOTUyNjM3LCJ5IjoyNX0seyJ4Ijo1MTAuNTI2ODM2Mzk1MjYzNywieSI6MzguMjY5NDk5MDAxMDE3ODM0fV0=" data-look="classic" marker-end="url(#my-svg_flowchart-v2-pointEnd__27ae60)"/><path d="M675.011,47L686.536,47C698.061,47,721.11,47,743.493,47C765.876,47,787.592,47,798.45,47L809.308,47" id="my-svg-L_REC_ACC_0" class="edge-thickness-normal edge-pattern-solid edge-thickness-normal edge-pattern-solid flowchart-link" style="stroke:#27ae60;stroke-width:2px;fill:none;;;stroke:#27ae60;stroke-width:2px;fill:none" data-edge="true" data-et="edge" data-id="L_REC_ACC_0" data-points="W3sieCI6Njc1LjAxMTIxMTM5NTI2MzcsInkiOjQ3fSx7IngiOjc0NC4xNTk2NDg4OTUyNjM3LCJ5Ijo0N30seyJ4Ijo4MTMuMzA4MDg2Mzk1MjYzNywieSI6NDd9XQ==" data-look="classic" marker-end="url(#my-svg_flowchart-v2-pointEnd__27ae60)"/><path d="M510.527,61.286L489.694,64.905C468.86,68.524,427.194,75.762,386.194,79.381C345.194,83,304.86,83,284.694,83L264.527,83" id="my-svg-L_REC_PROP_0" class="edge-thickness-normal edge-pattern-dotted edge-thickness-normal edge-pattern-solid flowchart-link" style="stroke:#e67e22;stroke-width:2px;fill:none;;;stroke:#e67e22;stroke-width:2px;fill:none" data-edge="true" data-et="edge" data-id="L_REC_PROP_0" data-points="W3sieCI6NTEwLjUyNjgzNjM5NTI2MzcsInkiOjYxLjI4NjI3NDM2MTk3MDgyNX0seyJ4IjozODUuNTI2ODM2Mzk1MjYzNywieSI6ODN9LHsieCI6MjYwLjUyNjgzNjM5NTI2MzcsInkiOjgzfV0=" data-look="classic" marker-end="url(#my-svg_flowchart-v2-pointEnd__e67e22)"/><path d="M940.214,47L957.68,47C975.147,47,1010.079,47,1044.345,47C1078.61,47,1112.209,47,1129.009,47L1145.808,47" id="my-svg-L_ACC_SUP_0" class="edge-thickness-normal edge-pattern-dotted edge-thickness-normal edge-pattern-solid flowchart-link" style="stroke:#f39c12;stroke-width:2px;fill:none;;;stroke:#f39c12;stroke-width:2px;fill:none" data-edge="true" data-et="edge" data-id="L_ACC_SUP_0" data-points="W3sieCI6OTQwLjIxNDMzNjM5NTI2MzcsInkiOjQ3fSx7IngiOjEwNDUuMDExMjExMzk1MjYzNywieSI6NDd9LHsieCI6MTE0OS44MDgwODYzOTUyNjM3LCJ5Ijo0N31d" data-look="classic" marker-end="url(#my-svg_flowchart-v2-pointEnd__f39c12)"/><path d="M260.527,117.093L281.36,126.744C302.194,136.395,343.86,155.698,385.313,165.349C426.766,175,468.006,175,488.626,175L509.246,175" id="my-svg-L_PROP_REJ_0" class="edge-thickness-normal edge-pattern-dotted edge-thickness-normal edge-pattern-solid flowchart-link" style="stroke:#e74c3c;stroke-width:2px;fill:none;;;stroke:#e74c3c;stroke-width:2px;fill:none" data-edge="true" data-et="edge" data-id="L_PROP_REJ_0" data-points="W3sieCI6MjYwLjUyNjgzNjM5NTI2MzcsInkiOjExNy4wOTI4NDAyODMyNDE1NH0seyJ4IjozODUuNTI2ODM2Mzk1MjYzNywieSI6MTc1fSx7IngiOjUxMy4yNDU1ODYzOTUyNjM3LCJ5IjoxNzV9XQ==" data-look="classic" marker-end="url(#my-svg_flowchart-v2-pointEnd__e74c3c)"/></g><g class="edgeLabels"><g class="edgeLabel"><g class="label" data-id="L_DRAFT_PROP_0" transform="translate(0, 0)"><foreignObject width="0" height="0"><div xmlns="http://www.w3.org/1999/xhtml" class="labelBkg" style="display: table-cell; white-space: nowrap; line-height: 1.5; max-width: 200px; text-align: center;"><span class="edgeLabel"></span></div></foreignObject></g></g><g class="edgeLabel" transform="translate(383.35769, 25.63351)"><g class="label" data-id="L_PROP_REC_0" transform="translate(-65.46875, -12)"><foreignObject width="130.9375" height="24"><div xmlns="http://www.w3.org/1999/xhtml" class="labelBkg" style="display: table-cell; white-space: nowrap; line-height: 1.5; max-width: 200px; text-align: center;"><span class="edgeLabel"><p>Tech Lead reviews</p></span></div></foreignObject></g></g><g class="edgeLabel" transform="translate(744.1596488952637, 47)"><g class="label" data-id="L_REC_ACC_0" transform="translate(-44.1484375, -12)"><foreignObject width="88.296875" height="24"><div xmlns="http://www.w3.org/1999/xhtml" class="labelBkg" style="display: table-cell; white-space: nowrap; line-height: 1.5; max-width: 200px; text-align: center;"><span class="edgeLabel"><p>CTO accepts</p></span></div></foreignObject></g></g><g class="edgeLabel" transform="translate(385.5268363952637, 83)"><g class="label" data-id="L_REC_PROP_0" transform="translate(-66.828125, -12)"><foreignObject width="133.65625" height="24"><div xmlns="http://www.w3.org/1999/xhtml" class="labelBkg" style="display: table-cell; white-space: nowrap; line-height: 1.5; max-width: 200px; text-align: center;"><span class="edgeLabel"><p>changes requested</p></span></div></foreignObject></g></g><g class="edgeLabel" transform="translate(1045.0112113952637, 47)"><g class="label" data-id="L_ACC_SUP_0" transform="translate(-79.796875, -12)"><foreignObject width="159.59375" height="24"><div xmlns="http://www.w3.org/1999/xhtml" class="labelBkg" style="display: table-cell; white-space: nowrap; line-height: 1.5; max-width: 200px; text-align: center;"><span class="edgeLabel"><p>decision changes later</p></span></div></foreignObject></g></g><g class="edgeLabel" transform="translate(385.5268363952637, 175)"><g class="label" data-id="L_PROP_REJ_0" transform="translate(-100, -24)"><foreignObject width="200" height="48"><div xmlns="http://www.w3.org/1999/xhtml" class="labelBkg" style="display: table; white-space: break-spaces; line-height: 1.5; max-width: 200px; text-align: center; width: 200px;"><span class="edgeLabel"><p>abandoned before acceptance</p></span></div></foreignObject></g></g></g><g class="nodes"><g class="node default start" id="my-svg-flowchart-DRAFT-0" data-look="classic" transform="translate(35.669668197631836, 83)"><g class="basic label-container outer-path"><path d="M-8.1796875 -19.5 C-2.3028010523300866 -19.5, 3.574085395339827 -19.5, 8.1796875 -19.5 C8.1796875 -19.5, 8.179687499999998 -19.5, 8.179687499999998 -19.5 C8.574334219609627 -19.48734444783536, 8.968980939219254 -19.47468889567072, 9.4290567896239 -19.45993515863156 C9.772960706872086 -19.4267591613396, 10.116864624120272 -19.39358316404764, 10.673292152847864 -19.3399052695533 C10.929558848741095 -19.298474057539188, 11.185825544634328 -19.25704284552508, 11.907280759676757 -19.140403561325776 C12.199318992243752 -19.073747740469926, 12.491357224810749 -19.007091919614076, 13.12595188623539 -18.862249829261074 C13.525037319996587 -18.74380336736294, 13.924122753757784 -18.62535690546481, 14.324297751460602 -18.50658706670804 C14.726788575818741 -18.35846672275985, 15.129279400176882 -18.210346378811657, 15.497394095147794 -18.074876768247425 C15.829203144919335 -17.92799474467931, 16.161012194690876 -17.781112721111196, 16.64042041279238 -17.568892924097174 C16.897752333812015 -17.434643025730193, 17.155084254831646 -17.300393127363215, 17.748679764076783 -16.990714730406097 C18.099362638824065 -16.77812871089297, 18.450045513571347 -16.565542691379846, 18.817618073605697 -16.342718045390892 C19.0322929490892 -16.19297014537918, 19.2469678245727 -16.043222245367474, 19.842842844578712 -15.627565626425154 C20.096034520806256 -15.425652002347158, 20.3492261970338 -15.223738378269163, 20.82014120850187 -14.848196188198123 C21.15367805600844 -14.545286848194051, 21.48721490351501 -14.242377508189978, 21.745497236767985 -14.007812326905688 C22.06696811964707 -13.675867247082701, 22.388439002526155 -13.343922167259713, 22.615108442968648 -13.10986736009568 C22.89960490292604 -12.775681629922563, 23.184101362883435 -12.441495899749444, 23.425401408126582 -12.158051136245305 C23.692154493836153 -11.80062630310052, 23.958907579545723 -11.443201469955733, 24.173046464640635 -11.156274872382312 C24.443025094745437 -10.74151519712828, 24.713003724850235 -10.326755521874249, 24.854971378604247 -10.108655082055241 C25.03673062458896 -9.78592313568995, 25.21848987057367 -9.463191189324657, 25.4683739742735 -9.019496659696287 C25.66008792079441 -8.621398547724294, 25.85180186731532 -8.223300435752298, 26.01073364880834 -7.893275190886684 C26.15796657487841 -7.529607016938634, 26.305199500948483 -7.165938842990585, 26.479821729970325 -6.734618561215508 C26.563627479635638 -6.48220899585647, 26.64743322930095 -6.229799430497432, 26.87371063421488 -5.548287939305138 C26.956568898303487 -5.232313467336458, 27.039427162392098 -4.916338995367778, 27.19078178754556 -4.339158212148133 C27.247247097682823 -4.04922077854082, 27.303712407820083 -3.759283344933507, 27.429732276581777 -3.1121979531509023 C27.48466443796187 -2.686154957069097, 27.539596599341966 -2.260111960987292, 27.589580202509367 -1.872449005199798 C27.607736545677128 -1.5896493048255038, 27.625892888844888 -1.3068496044512097, 27.669668715913414 -0.6250057626472757 C27.669668715913414 -0.22505619858581882, 27.669668715913414 0.17489336547563805, 27.669668715913414 0.625005762647271 C27.651093196334315 0.9143344739812367, 27.63251767675522 1.2036631853152022, 27.589580202509367 1.8724490051997846 C27.546710524397803 2.204937763057619, 27.503840846286238 2.5374265209154534, 27.429732276581777 3.1121979531508885 C27.342233262576887 3.5614868971428515, 27.254734248571996 4.010775841134814, 27.19078178754556 4.339158212148129 C27.072690983446456 4.789489629056266, 26.954600179347352 5.239821045964403, 26.873710634214884 5.548287939305125 C26.721696933387705 6.006128986102519, 26.569683232560525 6.463970032899913, 26.47982172997033 6.734618561215495 C26.356426694211144 7.0394066852213975, 26.233031658451964 7.344194809227301, 26.010733648808344 7.893275190886679 C25.796563763175 8.338003540905767, 25.58239387754166 8.782731890924856, 25.468373974273504 9.019496659696284 C25.230657369193782 9.441586563431809, 24.99294076411406 9.863676467167336, 24.85497137860425 10.108655082055236 C24.62055780017374 10.46877728738398, 24.386144221743226 10.828899492712726, 24.17304646464064 11.156274872382301 C23.896201506455718 11.527221895255561, 23.619356548270794 11.898168918128823, 23.425401408126582 12.158051136245302 C23.225895422476782 12.392402219201736, 23.026389436826978 12.626753302158171, 22.61510844296866 13.10986736009567 C22.352938200683152 13.380579659832648, 22.09076795839765 13.651291959569628, 21.74549723676799 14.007812326905684 C21.535796895717084 14.198256628281134, 21.326096554666176 14.388700929656585, 20.820141208501887 14.848196188198111 C20.548129040240504 15.065118653838768, 20.27611687197912 15.282041119479425, 19.842842844578715 15.627565626425152 C19.520844636418826 15.852177637359718, 19.198846428258936 16.076789648294284, 18.817618073605708 16.34271804539089 C18.574712247685103 16.48996898453704, 18.3318064217645 16.63721992368319, 17.748679764076787 16.990714730406093 C17.32077066187801 17.213954634934336, 16.892861559679233 17.437194539462574, 16.640420412792388 17.56889292409717 C16.25506017856843 17.739480468482924, 15.869699944344477 17.910068012868674, 15.497394095147804 18.07487676824742 C15.028971905706321 18.247260464009138, 14.56054971626484 18.419644159770858, 14.324297751460616 18.506587066708033 C13.940300558478468 18.62055541794274, 13.55630336549632 18.734523769177443, 13.125951886235413 18.86224982926107 C12.729937262324675 18.952637582931764, 12.333922638413936 19.04302533660246, 11.907280759676766 19.140403561325773 C11.580517599158595 19.193232095032194, 11.253754438640422 19.246060628738615, 10.673292152847878 19.3399052695533 C10.233086036890706 19.382371424134377, 9.792879920933531 19.42483757871545, 9.4290567896239 19.45993515863156 C9.13441265023725 19.469383822691665, 8.839768510850599 19.478832486751767, 8.179687500000004 19.5 C8.179687500000004 19.5, 8.179687500000002 19.5, 8.1796875 19.5 C2.4610519634689823 19.5, -3.2575835730620355 19.5, -8.179687499999996 19.5 C-8.62849392462137 19.485607651511103, -9.077300349242744 19.471215303022205, -9.429056789623893 19.45993515863156 C-9.846814122974918 19.41963461110989, -10.264571456325942 19.379334063588214, -10.673292152847871 19.3399052695533 C-11.066532029158576 19.27632929597217, -11.45977190546928 19.21275332239104, -11.907280759676759 19.140403561325773 C-12.359274271498872 19.03723899178569, -12.811267783320986 18.934074422245605, -13.125951886235388 18.862249829261074 C-13.475098096620355 18.758625066724672, -13.824244307005323 18.655000304188274, -14.324297751460593 18.506587066708043 C-14.765784827650224 18.344115741608466, -15.207271903839855 18.181644416508885, -15.497394095147797 18.074876768247425 C-15.841395398493642 17.92259759569232, -16.185396701839487 17.770318423137212, -16.64042041279238 17.568892924097174 C-16.892242789707502 17.437517351360484, -17.144065166622624 17.306141778623797, -17.74867976407678 16.990714730406097 C-18.06079670600219 16.80150760600817, -18.3729136479276 16.61230048161024, -18.817618073605686 16.3427180453909 C-19.10071074971927 16.1452448494185, -19.383803425832852 15.947771653446102, -19.842842844578712 15.627565626425156 C-20.173361674186886 15.36398565528808, -20.50388050379506 15.100405684151003, -20.82014120850187 14.848196188198125 C-21.075985683146296 14.615845005599912, -21.33183015779072 14.383493823001698, -21.745497236767974 14.007812326905697 C-21.9853783359843 13.760115397360327, -22.225259435200623 13.512418467814957, -22.615108442968655 13.109867360095677 C-22.793108670738803 12.90077816405697, -22.971108898508955 12.691688968018264, -23.42540140812658 12.158051136245307 C-23.69723984520236 11.793812395554841, -23.969078282278144 11.429573654864374, -24.173046464640635 11.156274872382316 C-24.328945948045863 10.916771400998956, -24.48484543145109 10.677267929615594, -24.854971378604244 10.108655082055249 C-25.052471463179533 9.757973682839639, -25.249971547754818 9.407292283624031, -25.4683739742735 9.019496659696289 C-25.63183104387715 8.680074557243298, -25.7952881134808 8.340652454790305, -26.01073364880834 7.893275190886686 C-26.1063462860191 7.657110128431523, -26.201958923229864 7.420945065976359, -26.479821729970325 6.73461856121551 C-26.636058183442913 6.264059256254413, -26.7922946369155 5.793499951293317, -26.87371063421488 5.5482879393051325 C-26.948787893557757 5.26198581074072, -27.02386515290063 4.975683682176308, -27.190781787545557 4.339158212148136 C-27.252933222987785 4.020023726862824, -27.315084658430017 3.7008892415775128, -27.429732276581777 3.112197953150904 C-27.467614341752014 2.8183921363504174, -27.505496406922255 2.524586319549931, -27.589580202509364 1.872449005199809 C-27.618690642376656 1.4190304067426274, -27.647801082243944 0.9656118082854455, -27.669668715913414 0.6250057626472781 C-27.669668715913414 0.19170692035008124, -27.669668715913414 -0.24159192194711565, -27.669668715913414 -0.6250057626472687 C-27.647478476513278 -0.9706366529432648, -27.62528823711314 -1.316267543239261, -27.589580202509367 -1.8724490051997822 C-27.557215492606563 -2.123463304071066, -27.524850782703762 -2.3744776029423504, -27.429732276581777 -3.112197953150895 C-27.336221226788034 -3.592357430274402, -27.242710176994287 -4.072516907397909, -27.19078178754556 -4.339158212148126 C-27.1122996943034 -4.638444448034867, -27.033817601061237 -4.9377306839216075, -26.873710634214884 -5.548287939305123 C-26.7638825263671 -5.879072701410031, -26.654054418519323 -6.209857463514939, -26.479821729970332 -6.734618561215485 C-26.3127994912721 -7.1471667199554325, -26.145777252573865 -7.559714878695379, -26.010733648808344 -7.893275190886676 C-25.809559583990964 -8.311017440915398, -25.60838551917358 -8.728759690944122, -25.468373974273504 -9.019496659696282 C-25.25513459863907 -9.398124763963446, -25.041895223004637 -9.776752868230611, -24.854971378604247 -10.108655082055243 C-24.64640579025761 -10.429067833457971, -24.43784020191097 -10.749480584860697, -24.17304646464064 -11.156274872382308 C-23.93817249065173 -11.47098460006823, -23.703298516662823 -11.78569432775415, -23.425401408126586 -12.158051136245302 C-23.17762291255825 -12.449105856135676, -22.929844416989912 -12.74016057602605, -22.615108442968662 -13.10986736009567 C-22.42151896784497 -13.309764387152377, -22.22792949272128 -13.509661414209083, -21.745497236767996 -14.007812326905677 C-21.522922258538927 -14.209949033122102, -21.300347280309857 -14.412085739338528, -20.820141208501887 -14.848196188198107 C-20.472463811445966 -15.125459660266106, -20.124786414390048 -15.402723132334105, -19.84284284457872 -15.627565626425149 C-19.43509455092633 -15.911993184937911, -19.02734625727394 -16.196420743450673, -18.81761807360571 -16.342718045390885 C-18.514575980553673 -16.526423943072043, -18.211533887501634 -16.7101298407532, -17.74867976407679 -16.99071473040609 C-17.404394149753607 -17.170328314873036, -17.060108535430423 -17.34994189933998, -16.640420412792388 -17.56889292409717 C-16.18448136192655 -17.770723616964077, -15.728542311060716 -17.97255430983098, -15.497394095147806 -18.07487676824742 C-15.108314146836108 -18.21806178584174, -14.71923419852441 -18.36124680343606, -14.324297751460618 -18.506587066708033 C-13.95615562272257 -18.61584971810002, -13.588013493984521 -18.725112369492003, -13.125951886235413 -18.862249829261067 C-12.833616547424121 -18.92897346267838, -12.541281208612832 -18.99569709609569, -11.907280759676768 -19.140403561325773 C-11.534674432096821 -19.20064366276367, -11.162068104516877 -19.260883764201573, -10.67329215284788 -19.3399052695533 C-10.357499983311957 -19.37036936035278, -10.041707813776036 -19.40083345115226, -9.429056789623903 -19.45993515863156 C-9.142440758500344 -19.46912637688543, -8.855824727376785 -19.478317595139302, -8.179687500000005 -19.5 C-8.179687500000004 -19.5, -8.179687500000002 -19.5, -8.1796875 -19.5" stroke="none" stroke-width="0" fill="#34495e" style="fill:#34495e !important"/><path d="M-8.1796875 -19.5 C-3.13759082204706 -19.5, 1.9045058559058798 -19.5, 8.1796875 -19.5 M-8.1796875 -19.5 C-2.2316094439107284 -19.5, 3.7164686121785433 -19.5, 8.1796875 -19.5 M8.1796875 -19.5 C8.1796875 -19.5, 8.1796875 -19.5, 8.179687499999998 -19.5 M8.1796875 -19.5 C8.1796875 -19.5, 8.1796875 -19.5, 8.179687499999998 -19.5 M8.179687499999998 -19.5 C8.602211472762503 -19.486450478586526, 9.024735445525009 -19.472900957173056, 9.4290567896239 -19.45993515863156 M8.179687499999998 -19.5 C8.454337492175817 -19.4911925093247, 8.728987484351636 -19.482385018649403, 9.4290567896239 -19.45993515863156 M9.4290567896239 -19.45993515863156 C9.886653539653986 -19.415791350496765, 10.344250289684073 -19.371647542361973, 10.673292152847864 -19.3399052695533 M9.4290567896239 -19.45993515863156 C9.789551316302889 -19.425158685200937, 10.150045842981879 -19.390382211770316, 10.673292152847864 -19.3399052695533 M10.673292152847864 -19.3399052695533 C10.942512057234206 -19.296379883243656, 11.211731961620547 -19.252854496934013, 11.907280759676757 -19.140403561325776 M10.673292152847864 -19.3399052695533 C11.107579694976542 -19.269693027692124, 11.541867237105219 -19.19948078583095, 11.907280759676757 -19.140403561325776 M11.907280759676757 -19.140403561325776 C12.306907602520392 -19.04919134225558, 12.706534445364024 -18.957979123185382, 13.12595188623539 -18.862249829261074 M11.907280759676757 -19.140403561325776 C12.28004664229987 -19.055322181141765, 12.652812524922984 -18.970240800957754, 13.12595188623539 -18.862249829261074 M13.12595188623539 -18.862249829261074 C13.589632930462805 -18.724631729245846, 14.053313974690221 -18.58701362923062, 14.324297751460602 -18.50658706670804 M13.12595188623539 -18.862249829261074 C13.437804851511707 -18.76969350611668, 13.749657816788025 -18.67713718297229, 14.324297751460602 -18.50658706670804 M14.324297751460602 -18.50658706670804 C14.681255666825752 -18.375223254170866, 15.038213582190904 -18.243859441633692, 15.497394095147794 -18.074876768247425 M14.324297751460602 -18.50658706670804 C14.675416966351822 -18.377371949917627, 15.026536181243042 -18.248156833127215, 15.497394095147794 -18.074876768247425 M15.497394095147794 -18.074876768247425 C15.73811218784946 -17.968318009256908, 15.978830280551124 -17.861759250266395, 16.64042041279238 -17.568892924097174 M15.497394095147794 -18.074876768247425 C15.840268982643755 -17.923096226575122, 16.183143870139716 -17.771315684902824, 16.64042041279238 -17.568892924097174 M16.64042041279238 -17.568892924097174 C17.043340043815473 -17.358690010674767, 17.446259674838565 -17.148487097252364, 17.748679764076783 -16.990714730406097 M16.64042041279238 -17.568892924097174 C16.9884561478244 -17.387322904058497, 17.336491882856418 -17.205752884019823, 17.748679764076783 -16.990714730406097 M17.748679764076783 -16.990714730406097 C18.137286911577153 -16.755138793882285, 18.52589405907752 -16.519562857358473, 18.817618073605697 -16.342718045390892 M17.748679764076783 -16.990714730406097 C18.160300331500054 -16.741187923483157, 18.571920898923324 -16.491661116560216, 18.817618073605697 -16.342718045390892 M18.817618073605697 -16.342718045390892 C19.211245629722722 -16.068140502105926, 19.604873185839747 -15.79356295882096, 19.842842844578712 -15.627565626425154 M18.817618073605697 -16.342718045390892 C19.059040303230237 -16.174312349004694, 19.300462532854773 -16.005906652618496, 19.842842844578712 -15.627565626425154 M19.842842844578712 -15.627565626425154 C20.165114694540435 -15.370562402094777, 20.48738654450216 -15.113559177764397, 20.82014120850187 -14.848196188198123 M19.842842844578712 -15.627565626425154 C20.143148582014987 -15.388079792291016, 20.443454319451266 -15.148593958156878, 20.82014120850187 -14.848196188198123 M20.82014120850187 -14.848196188198123 C21.042541037806124 -14.64621854760103, 21.26494086711038 -14.444240907003936, 21.745497236767985 -14.007812326905688 M20.82014120850187 -14.848196188198123 C21.177476460114786 -14.523673767255938, 21.5348117117277 -14.199151346313752, 21.745497236767985 -14.007812326905688 M21.745497236767985 -14.007812326905688 C22.01182820111059 -13.732803740043122, 22.27815916545319 -13.457795153180555, 22.615108442968648 -13.10986736009568 M21.745497236767985 -14.007812326905688 C22.03159326444352 -13.71239468940999, 22.317689292119056 -13.416977051914293, 22.615108442968648 -13.10986736009568 M22.615108442968648 -13.10986736009568 C22.873916735341083 -12.805856413265998, 23.13272502771352 -12.501845466436315, 23.425401408126582 -12.158051136245305 M22.615108442968648 -13.10986736009568 C22.921842893100365 -12.749559621286313, 23.228577343232086 -12.389251882476945, 23.425401408126582 -12.158051136245305 M23.425401408126582 -12.158051136245305 C23.606777765476767 -11.915023341122138, 23.78815412282695 -11.67199554599897, 24.173046464640635 -11.156274872382312 M23.425401408126582 -12.158051136245305 C23.70507254988288 -11.783317284857024, 23.984743691639174 -11.408583433468744, 24.173046464640635 -11.156274872382312 M24.173046464640635 -11.156274872382312 C24.32029295217442 -10.930064726312224, 24.4675394397082 -10.703854580242139, 24.854971378604247 -10.108655082055241 M24.173046464640635 -11.156274872382312 C24.3400878487914 -10.89965444943454, 24.507129232942162 -10.643034026486765, 24.854971378604247 -10.108655082055241 M24.854971378604247 -10.108655082055241 C24.985764133878924 -9.876419300862432, 25.1165568891536 -9.644183519669621, 25.4683739742735 -9.019496659696287 M24.854971378604247 -10.108655082055241 C25.059487700259332 -9.745515643433409, 25.264004021914417 -9.382376204811576, 25.4683739742735 -9.019496659696287 M25.4683739742735 -9.019496659696287 C25.610819136446057 -8.72370623260676, 25.75326429861861 -8.427915805517232, 26.01073364880834 -7.893275190886684 M25.4683739742735 -9.019496659696287 C25.649053594679774 -8.644311561998094, 25.829733215086044 -8.269126464299902, 26.01073364880834 -7.893275190886684 M26.01073364880834 -7.893275190886684 C26.142256686248476 -7.568410745584603, 26.273779723688616 -7.243546300282523, 26.479821729970325 -6.734618561215508 M26.01073364880834 -7.893275190886684 C26.168480876618897 -7.503636488359442, 26.32622810442945 -7.113997785832199, 26.479821729970325 -6.734618561215508 M26.479821729970325 -6.734618561215508 C26.591740233497813 -6.397537860382651, 26.703658737025297 -6.060457159549794, 26.87371063421488 -5.548287939305138 M26.479821729970325 -6.734618561215508 C26.57528062413734 -6.447111581293781, 26.670739518304355 -6.159604601372053, 26.87371063421488 -5.548287939305138 M26.87371063421488 -5.548287939305138 C26.97661633057316 -5.155863919480085, 27.079522026931446 -4.763439899655031, 27.19078178754556 -4.339158212148133 M26.87371063421488 -5.548287939305138 C26.979981103266706 -5.143032582897889, 27.086251572318535 -4.737777226490641, 27.19078178754556 -4.339158212148133 M27.19078178754556 -4.339158212148133 C27.24862442712169 -4.042148482970915, 27.306467066697817 -3.745138753793697, 27.429732276581777 -3.1121979531509023 M27.19078178754556 -4.339158212148133 C27.263494968825054 -3.9657913942142358, 27.33620815010455 -3.592424576280339, 27.429732276581777 -3.1121979531509023 M27.429732276581777 -3.1121979531509023 C27.484923839959997 -2.684143086396368, 27.540115403338213 -2.256088219641834, 27.589580202509367 -1.872449005199798 M27.429732276581777 -3.1121979531509023 C27.465014927985795 -2.8385526762089306, 27.50029757938981 -2.5649073992669593, 27.589580202509367 -1.872449005199798 M27.589580202509367 -1.872449005199798 C27.61392371453172 -1.4932791557224436, 27.638267226554067 -1.1141093062450893, 27.669668715913414 -0.6250057626472757 M27.589580202509367 -1.872449005199798 C27.605786191588233 -1.620027644057488, 27.621992180667103 -1.3676062829151778, 27.669668715913414 -0.6250057626472757 M27.669668715913414 -0.6250057626472757 C27.669668715913414 -0.33599496172436705, 27.669668715913414 -0.0469841608014584, 27.669668715913414 0.625005762647271 M27.669668715913414 -0.6250057626472757 C27.669668715913414 -0.24861195867634123, 27.669668715913414 0.12778184529459324, 27.669668715913414 0.625005762647271 M27.669668715913414 0.625005762647271 C27.643060764742152 1.0394460796913056, 27.616452813570888 1.4538863967353404, 27.589580202509367 1.8724490051997846 M27.669668715913414 0.625005762647271 C27.650401455265975 0.9251088994840011, 27.631134194618536 1.2252120363207313, 27.589580202509367 1.8724490051997846 M27.589580202509367 1.8724490051997846 C27.548795959110397 2.188763543242409, 27.508011715711422 2.505078081285033, 27.429732276581777 3.1121979531508885 M27.589580202509367 1.8724490051997846 C27.52945272983232 2.338785809770481, 27.469325257155276 2.8051226143411774, 27.429732276581777 3.1121979531508885 M27.429732276581777 3.1121979531508885 C27.373597182237148 3.4004397984541628, 27.317462087892523 3.6886816437574366, 27.19078178754556 4.339158212148129 M27.429732276581777 3.1121979531508885 C27.354158752317833 3.5002520277762463, 27.278585228053885 3.888306102401604, 27.19078178754556 4.339158212148129 M27.19078178754556 4.339158212148129 C27.124009964304555 4.593788113257336, 27.05723814106355 4.848418014366543, 26.873710634214884 5.548287939305125 M27.19078178754556 4.339158212148129 C27.113542518373148 4.633705021213552, 27.03630324920074 4.928251830278975, 26.873710634214884 5.548287939305125 M26.873710634214884 5.548287939305125 C26.749897084816773 5.92119462308212, 26.626083535418662 6.294101306859114, 26.47982172997033 6.734618561215495 M26.873710634214884 5.548287939305125 C26.79387750497372 5.788732604897724, 26.714044375732563 6.029177270490322, 26.47982172997033 6.734618561215495 M26.47982172997033 6.734618561215495 C26.299552077790423 7.179888087376485, 26.119282425610518 7.625157613537476, 26.010733648808344 7.893275190886679 M26.47982172997033 6.734618561215495 C26.325036439628263 7.116941220930407, 26.170251149286194 7.49926388064532, 26.010733648808344 7.893275190886679 M26.010733648808344 7.893275190886679 C25.816227447373024 8.297171479933134, 25.6217212459377 8.70106776897959, 25.468373974273504 9.019496659696284 M26.010733648808344 7.893275190886679 C25.890777704708476 8.142366275456089, 25.77082176060861 8.3914573600255, 25.468373974273504 9.019496659696284 M25.468373974273504 9.019496659696284 C25.26816746486883 9.374983590251697, 25.06796095546416 9.73047052080711, 24.85497137860425 10.108655082055236 M25.468373974273504 9.019496659696284 C25.227484138015836 9.447220956712753, 24.986594301758167 9.874945253729223, 24.85497137860425 10.108655082055236 M24.85497137860425 10.108655082055236 C24.693664193861963 10.35646623486345, 24.532357009119675 10.604277387671667, 24.17304646464064 11.156274872382301 M24.85497137860425 10.108655082055236 C24.63971728323637 10.439343176358207, 24.424463187868483 10.77003127066118, 24.17304646464064 11.156274872382301 M24.17304646464064 11.156274872382301 C23.972571327374354 11.424893292658403, 23.772096190108066 11.693511712934505, 23.425401408126582 12.158051136245302 M24.17304646464064 11.156274872382301 C23.97899169097495 11.416290590340761, 23.78493691730926 11.67630630829922, 23.425401408126582 12.158051136245302 M23.425401408126582 12.158051136245302 C23.239882907805224 12.375971723024486, 23.054364407483863 12.59389230980367, 22.61510844296866 13.10986736009567 M23.425401408126582 12.158051136245302 C23.243739086963572 12.371442035562279, 23.062076765800562 12.584832934879255, 22.61510844296866 13.10986736009567 M22.61510844296866 13.10986736009567 C22.374683197674937 13.358126165141176, 22.13425795238122 13.606384970186681, 21.74549723676799 14.007812326905684 M22.61510844296866 13.10986736009567 C22.38824319490956 13.34412435469995, 22.161377946850465 13.57838134930423, 21.74549723676799 14.007812326905684 M21.74549723676799 14.007812326905684 C21.545036711735918 14.189865271844964, 21.344576186703847 14.371918216784245, 20.820141208501887 14.848196188198111 M21.74549723676799 14.007812326905684 C21.47090942272365 14.257185714425313, 21.196321608679312 14.506559101944942, 20.820141208501887 14.848196188198111 M20.820141208501887 14.848196188198111 C20.583541154128913 15.036878435368688, 20.346941099755938 15.225560682539264, 19.842842844578715 15.627565626425152 M20.820141208501887 14.848196188198111 C20.485347053037447 15.11518561793436, 20.15055289757301 15.382175047670607, 19.842842844578715 15.627565626425152 M19.842842844578715 15.627565626425152 C19.50009561662738 15.86665125535564, 19.15734838867605 16.105736884286127, 18.817618073605708 16.34271804539089 M19.842842844578715 15.627565626425152 C19.44550320600406 15.904732557739104, 19.048163567429402 16.181899489053055, 18.817618073605708 16.34271804539089 M18.817618073605708 16.34271804539089 C18.49868623376721 16.536056400952518, 18.17975439392871 16.729394756514143, 17.748679764076787 16.990714730406093 M18.817618073605708 16.34271804539089 C18.43718615273772 16.573338111487185, 18.056754231869732 16.80395817758348, 17.748679764076787 16.990714730406093 M17.748679764076787 16.990714730406093 C17.402307301806335 17.171417022110436, 17.055934839535887 17.35211931381478, 16.640420412792388 17.56889292409717 M17.748679764076787 16.990714730406093 C17.383984522055925 17.180976004569924, 17.019289280035064 17.37123727873376, 16.640420412792388 17.56889292409717 M16.640420412792388 17.56889292409717 C16.247448656621476 17.742849863461064, 15.85447690045056 17.916806802824958, 15.497394095147804 18.07487676824742 M16.640420412792388 17.56889292409717 C16.20331629383451 17.762385951326824, 15.766212174876632 17.95587897855648, 15.497394095147804 18.07487676824742 M15.497394095147804 18.07487676824742 C15.20014296907592 18.184267930401163, 14.902891843004035 18.293659092554904, 14.324297751460616 18.506587066708033 M15.497394095147804 18.07487676824742 C15.12757514562975 18.21097356023896, 14.757756196111696 18.347070352230496, 14.324297751460616 18.506587066708033 M14.324297751460616 18.506587066708033 C14.061062767055063 18.584713828330973, 13.797827782649508 18.662840589953912, 13.125951886235413 18.86224982926107 M14.324297751460616 18.506587066708033 C14.008611381796985 18.60028112415263, 13.692925012133355 18.693975181597228, 13.125951886235413 18.86224982926107 M13.125951886235413 18.86224982926107 C12.689641925793095 18.961834730543455, 12.25333196535078 19.061419631825835, 11.907280759676766 19.140403561325773 M13.125951886235413 18.86224982926107 C12.814198674703132 18.933405465413486, 12.50244546317085 19.0045611015659, 11.907280759676766 19.140403561325773 M11.907280759676766 19.140403561325773 C11.60328932826769 19.189550538467234, 11.299297896858615 19.238697515608692, 10.673292152847878 19.3399052695533 M11.907280759676766 19.140403561325773 C11.570424476483446 19.19486387283298, 11.233568193290125 19.249324184340182, 10.673292152847878 19.3399052695533 M10.673292152847878 19.3399052695533 C10.198179708198372 19.38573879568232, 9.723067263548867 19.431572321811345, 9.4290567896239 19.45993515863156 M10.673292152847878 19.3399052695533 C10.381487397546866 19.368055323350625, 10.089682642245855 19.39620537714795, 9.4290567896239 19.45993515863156 M9.4290567896239 19.45993515863156 C9.104615456837442 19.470339360687277, 8.780174124050983 19.480743562742994, 8.179687500000004 19.5 M9.4290567896239 19.45993515863156 C9.0954037213039 19.47063476311628, 8.761750652983899 19.481334367601004, 8.179687500000004 19.5 M8.179687500000004 19.5 C8.179687500000004 19.5, 8.179687500000002 19.5, 8.1796875 19.5 M8.179687500000004 19.5 C8.179687500000004 19.5, 8.179687500000002 19.5, 8.1796875 19.5 M8.1796875 19.5 C2.546244136316645 19.5, -3.0871992273667104 19.5, -8.179687499999996 19.5 M8.1796875 19.5 C2.6893889662325536 19.5, -2.8009095675348927 19.5, -8.179687499999996 19.5 M-8.179687499999996 19.5 C-8.505585080744009 19.4895490989067, -8.831482661488021 19.479098197813396, -9.429056789623893 19.45993515863156 M-8.179687499999996 19.5 C-8.666653704351813 19.48438394164865, -9.153619908703629 19.468767883297307, -9.429056789623893 19.45993515863156 M-9.429056789623893 19.45993515863156 C-9.918810141508745 19.41268924178981, -10.408563493393597 19.365443324948057, -10.673292152847871 19.3399052695533 M-9.429056789623893 19.45993515863156 C-9.782603211244798 19.425828960539572, -10.136149632865703 19.391722762447586, -10.673292152847871 19.3399052695533 M-10.673292152847871 19.3399052695533 C-11.039706092668993 19.280666305345562, -11.406120032490115 19.221427341137826, -11.907280759676759 19.140403561325773 M-10.673292152847871 19.3399052695533 C-10.962702405241671 19.293115664356296, -11.252112657635474 19.246326059159294, -11.907280759676759 19.140403561325773 M-11.907280759676759 19.140403561325773 C-12.306378665574691 19.049312068661795, -12.705476571472623 18.95822057599782, -13.125951886235388 18.862249829261074 M-11.907280759676759 19.140403561325773 C-12.153691463374365 19.08416192618691, -12.400102167071973 19.027920291048048, -13.125951886235388 18.862249829261074 M-13.125951886235388 18.862249829261074 C-13.485373282470947 18.75557544549977, -13.844794678706505 18.648901061738464, -14.324297751460593 18.506587066708043 M-13.125951886235388 18.862249829261074 C-13.496405898024278 18.75230102311492, -13.866859909813167 18.642352216968767, -14.324297751460593 18.506587066708043 M-14.324297751460593 18.506587066708043 C-14.647324420515488 18.387710266470044, -14.970351089570386 18.26883346623205, -15.497394095147797 18.074876768247425 M-14.324297751460593 18.506587066708043 C-14.766015086036061 18.34403100439399, -15.207732420611528 18.181474942079937, -15.497394095147797 18.074876768247425 M-15.497394095147797 18.074876768247425 C-15.837720724931776 17.924224264672837, -16.178047354715755 17.773571761098253, -16.64042041279238 17.568892924097174 M-15.497394095147797 18.074876768247425 C-15.946453144327457 17.876091648038994, -16.395512193507116 17.67730652783056, -16.64042041279238 17.568892924097174 M-16.64042041279238 17.568892924097174 C-17.005854964601994 17.3782459524901, -17.371289516411604 17.187598980883028, -17.74867976407678 16.990714730406097 M-16.64042041279238 17.568892924097174 C-17.07659438192769 17.341341243782043, -17.512768351063 17.113789563466913, -17.74867976407678 16.990714730406097 M-17.74867976407678 16.990714730406097 C-18.175678159939043 16.73186579351329, -18.602676555801303 16.473016856620482, -18.817618073605686 16.3427180453909 M-17.74867976407678 16.990714730406097 C-18.131782240504062 16.75847575783583, -18.514884716931345 16.526236785265564, -18.817618073605686 16.3427180453909 M-18.817618073605686 16.3427180453909 C-19.18357961516621 16.087439116218082, -19.54954115672673 15.832160187045268, -19.842842844578712 15.627565626425156 M-18.817618073605686 16.3427180453909 C-19.12937937153797 16.125246859882413, -19.44114066947025 15.907775674373926, -19.842842844578712 15.627565626425156 M-19.842842844578712 15.627565626425156 C-20.094295838196658 15.427038555460026, -20.345748831814603 15.226511484494898, -20.82014120850187 14.848196188198125 M-19.842842844578712 15.627565626425156 C-20.21577764784816 15.330160045029675, -20.588712451117612 15.032754463634193, -20.82014120850187 14.848196188198125 M-20.82014120850187 14.848196188198125 C-21.011606393848638 14.67431257275739, -21.20307157919541 14.500428957316657, -21.745497236767974 14.007812326905697 M-20.82014120850187 14.848196188198125 C-21.13522076376325 14.56204927265794, -21.450300319024635 14.275902357117756, -21.745497236767974 14.007812326905697 M-21.745497236767974 14.007812326905697 C-22.06739908019663 13.675422244932761, -22.389300923625285 13.343032162959826, -22.615108442968655 13.109867360095677 M-21.745497236767974 14.007812326905697 C-22.073409254278136 13.669216246749135, -22.401321271788298 13.330620166592574, -22.615108442968655 13.109867360095677 M-22.615108442968655 13.109867360095677 C-22.86774024625222 12.81311166880196, -23.120372049535792 12.516355977508244, -23.42540140812658 12.158051136245307 M-22.615108442968655 13.109867360095677 C-22.853256940437 12.83012458393597, -23.091405437905344 12.55038180777626, -23.42540140812658 12.158051136245307 M-23.42540140812658 12.158051136245307 C-23.602091771311322 11.92130214640098, -23.778782134496065 11.684553156556651, -24.173046464640635 11.156274872382316 M-23.42540140812658 12.158051136245307 C-23.69146789743253 11.801546279731154, -23.957534386738484 11.445041423216999, -24.173046464640635 11.156274872382316 M-24.173046464640635 11.156274872382316 C-24.352997983286983 10.879821015992809, -24.532949501933327 10.603367159603302, -24.854971378604244 10.108655082055249 M-24.173046464640635 11.156274872382316 C-24.432112355778766 10.758280094661805, -24.691178246916902 10.360285316941292, -24.854971378604244 10.108655082055249 M-24.854971378604244 10.108655082055249 C-24.996872157744512 9.85669587967969, -25.138772936884784 9.60473667730413, -25.4683739742735 9.019496659696289 M-24.854971378604244 10.108655082055249 C-24.97825283777899 9.889756367689072, -25.101534296953734 9.670857653322896, -25.4683739742735 9.019496659696289 M-25.4683739742735 9.019496659696289 C-25.619689886564842 8.705285930181457, -25.77100579885618 8.391075200666627, -26.01073364880834 7.893275190886686 M-25.4683739742735 9.019496659696289 C-25.604238058596287 8.737371981574316, -25.74010214291907 8.455247303452346, -26.01073364880834 7.893275190886686 M-26.01073364880834 7.893275190886686 C-26.176082153139333 7.484861188393284, -26.341430657470323 7.076447185899881, -26.479821729970325 6.73461856121551 M-26.01073364880834 7.893275190886686 C-26.153912248224973 7.539621282157704, -26.297090847641602 7.185967373428722, -26.479821729970325 6.73461856121551 M-26.479821729970325 6.73461856121551 C-26.57564141063812 6.446024949836955, -26.671461091305915 6.157431338458402, -26.87371063421488 5.5482879393051325 M-26.479821729970325 6.73461856121551 C-26.60015386570451 6.372197340706321, -26.720486001438694 6.009776120197133, -26.87371063421488 5.5482879393051325 M-26.87371063421488 5.5482879393051325 C-26.969725328145415 5.182142298316422, -27.06574002207595 4.8159966573277115, -27.190781787545557 4.339158212148136 M-26.87371063421488 5.5482879393051325 C-26.943699803713567 5.281388902508697, -27.013688973212254 5.014489865712261, -27.190781787545557 4.339158212148136 M-27.190781787545557 4.339158212148136 C-27.27701671563147 3.8963600821855007, -27.363251643717376 3.453561952222866, -27.429732276581777 3.112197953150904 M-27.190781787545557 4.339158212148136 C-27.26131310045111 3.9769948271763917, -27.331844413356663 3.6148314422046477, -27.429732276581777 3.112197953150904 M-27.429732276581777 3.112197953150904 C-27.485080122954482 2.682930986352707, -27.540427969327183 2.25366401955451, -27.589580202509364 1.872449005199809 M-27.429732276581777 3.112197953150904 C-27.467219678387366 2.8214530674715532, -27.504707080192954 2.530708181792202, -27.589580202509364 1.872449005199809 M-27.589580202509364 1.872449005199809 C-27.618581330439937 1.4207330283919777, -27.647582458370515 0.9690170515841463, -27.669668715913414 0.6250057626472781 M-27.589580202509364 1.872449005199809 C-27.60811125552452 1.583812896491966, -27.62664230853968 1.295176787784123, -27.669668715913414 0.6250057626472781 M-27.669668715913414 0.6250057626472781 C-27.669668715913414 0.2971971261361121, -27.669668715913414 -0.03061151037505394, -27.669668715913414 -0.6250057626472687 M-27.669668715913414 0.6250057626472781 C-27.669668715913414 0.2436783918165798, -27.669668715913414 -0.13764897901411854, -27.669668715913414 -0.6250057626472687 M-27.669668715913414 -0.6250057626472687 C-27.648524342012887 -0.9543464535793684, -27.627379968112365 -1.2836871445114681, -27.589580202509367 -1.8724490051997822 M-27.669668715913414 -0.6250057626472687 C-27.644301084020967 -1.0201271057560626, -27.61893345212852 -1.4152484488648565, -27.589580202509367 -1.8724490051997822 M-27.589580202509367 -1.8724490051997822 C-27.553427274045344 -2.1528439791635283, -27.51727434558132 -2.4332389531272747, -27.429732276581777 -3.112197953150895 M-27.589580202509367 -1.8724490051997822 C-27.556115050658377 -2.131998114514368, -27.522649898807387 -2.391547223828954, -27.429732276581777 -3.112197953150895 M-27.429732276581777 -3.112197953150895 C-27.348122257621807 -3.5312481522267247, -27.26651223866184 -3.9502983513025542, -27.19078178754556 -4.339158212148126 M-27.429732276581777 -3.112197953150895 C-27.371770636602452 -3.409818724247784, -27.313808996623127 -3.7074394953446728, -27.19078178754556 -4.339158212148126 M-27.19078178754556 -4.339158212148126 C-27.10238257033266 -4.676262739844008, -27.01398335311976 -5.0133672675398895, -26.873710634214884 -5.548287939305123 M-27.19078178754556 -4.339158212148126 C-27.069242504599764 -4.802640173478893, -26.947703221653963 -5.2661221348096605, -26.873710634214884 -5.548287939305123 M-26.873710634214884 -5.548287939305123 C-26.765080555577498 -5.8754644283083515, -26.656450476940112 -6.20264091731158, -26.479821729970332 -6.734618561215485 M-26.873710634214884 -5.548287939305123 C-26.74523005478777 -5.935250973939223, -26.616749475360656 -6.322214008573324, -26.479821729970332 -6.734618561215485 M-26.479821729970332 -6.734618561215485 C-26.376238821990828 -6.990470346564152, -26.27265591401132 -7.2463221319128195, -26.010733648808344 -7.893275190886676 M-26.479821729970332 -6.734618561215485 C-26.37893560722338 -6.983809234900955, -26.278049484476423 -7.232999908586425, -26.010733648808344 -7.893275190886676 M-26.010733648808344 -7.893275190886676 C-25.80433233836033 -8.32187192831255, -25.597931027912313 -8.750468665738424, -25.468373974273504 -9.019496659696282 M-26.010733648808344 -7.893275190886676 C-25.822199617581614 -8.284770140711016, -25.633665586354887 -8.676265090535356, -25.468373974273504 -9.019496659696282 M-25.468373974273504 -9.019496659696282 C-25.23926299452647 -9.42630640423956, -25.01015201477944 -9.833116148782839, -24.854971378604247 -10.108655082055243 M-25.468373974273504 -9.019496659696282 C-25.329092737911285 -9.266804598611944, -25.189811501549062 -9.514112537527609, -24.854971378604247 -10.108655082055243 M-24.854971378604247 -10.108655082055243 C-24.672149429097537 -10.389518691064882, -24.489327479590827 -10.670382300074522, -24.17304646464064 -11.156274872382308 M-24.854971378604247 -10.108655082055243 C-24.65799702109615 -10.411260590208673, -24.461022663588054 -10.713866098362104, -24.17304646464064 -11.156274872382308 M-24.17304646464064 -11.156274872382308 C-23.886686819805853 -11.539970708560602, -23.600327174971063 -11.923666544738895, -23.425401408126586 -12.158051136245302 M-24.17304646464064 -11.156274872382308 C-23.96994299903776 -11.42841501318381, -23.766839533434876 -11.700555153985313, -23.425401408126586 -12.158051136245302 M-23.425401408126586 -12.158051136245302 C-23.179737687466428 -12.446621721194427, -22.93407396680627 -12.735192306143551, -22.615108442968662 -13.10986736009567 M-23.425401408126586 -12.158051136245302 C-23.154610152930683 -12.476137953057332, -22.88381889773478 -12.794224769869365, -22.615108442968662 -13.10986736009567 M-22.615108442968662 -13.10986736009567 C-22.267327721342955 -13.468979508502477, -21.919546999717248 -13.828091656909283, -21.745497236767996 -14.007812326905677 M-22.615108442968662 -13.10986736009567 C-22.33905096371139 -13.394919372169358, -22.062993484454115 -13.679971384243045, -21.745497236767996 -14.007812326905677 M-21.745497236767996 -14.007812326905677 C-21.47941058502698 -14.249465183749859, -21.21332393328596 -14.49111804059404, -20.820141208501887 -14.848196188198107 M-21.745497236767996 -14.007812326905677 C-21.389803938834753 -14.330843568959699, -21.03411064090151 -14.65387481101372, -20.820141208501887 -14.848196188198107 M-20.820141208501887 -14.848196188198107 C-20.520476361866187 -15.087170928973604, -20.22081151523049 -15.326145669749103, -19.84284284457872 -15.627565626425149 M-20.820141208501887 -14.848196188198107 C-20.544557807898006 -15.067966616597424, -20.268974407294124 -15.287737044996739, -19.84284284457872 -15.627565626425149 M-19.84284284457872 -15.627565626425149 C-19.5209164599783 -15.852127536353821, -19.198990075377882 -16.076689446282494, -18.81761807360571 -16.342718045390885 M-19.84284284457872 -15.627565626425149 C-19.563241949904043 -15.82260310682255, -19.283641055229367 -16.01764058721995, -18.81761807360571 -16.342718045390885 M-18.81761807360571 -16.342718045390885 C-18.48388199759685 -16.545030815918334, -18.150145921587992 -16.747343586445783, -17.74867976407679 -16.99071473040609 M-18.81761807360571 -16.342718045390885 C-18.51715051538378 -16.524863244928387, -18.21668295716185 -16.707008444465888, -17.74867976407679 -16.99071473040609 M-17.74867976407679 -16.99071473040609 C-17.324337845623024 -17.21209363745945, -16.899995927169254 -17.43347254451281, -16.640420412792388 -17.56889292409717 M-17.74867976407679 -16.99071473040609 C-17.31653867422974 -17.216162460179717, -16.88439758438269 -17.441610189953348, -16.640420412792388 -17.56889292409717 M-16.640420412792388 -17.56889292409717 C-16.27063186950262 -17.732587342824157, -15.900843326212847 -17.896281761551148, -15.497394095147806 -18.07487676824742 M-16.640420412792388 -17.56889292409717 C-16.387763656617413 -17.68073657525945, -16.13510690044244 -17.79258022642173, -15.497394095147806 -18.07487676824742 M-15.497394095147806 -18.07487676824742 C-15.145862894550557 -18.204243499586006, -14.794331693953309 -18.333610230924588, -14.324297751460618 -18.506587066708033 M-15.497394095147806 -18.07487676824742 C-15.074874657698285 -18.23036782695571, -14.652355220248763 -18.385858885663996, -14.324297751460618 -18.506587066708033 M-14.324297751460618 -18.506587066708033 C-13.915419916791933 -18.627939861794147, -13.50654208212325 -18.74929265688026, -13.125951886235413 -18.862249829261067 M-14.324297751460618 -18.506587066708033 C-14.035556311620573 -18.592284010417814, -13.746814871780526 -18.67798095412759, -13.125951886235413 -18.862249829261067 M-13.125951886235413 -18.862249829261067 C-12.650223497338335 -18.970831729608964, -12.174495108441258 -19.079413629956864, -11.907280759676768 -19.140403561325773 M-13.125951886235413 -18.862249829261067 C-12.736984403199138 -18.95102911901406, -12.348016920162861 -19.03980840876705, -11.907280759676768 -19.140403561325773 M-11.907280759676768 -19.140403561325773 C-11.605609138969069 -19.189175489463434, -11.303937518261368 -19.2379474176011, -10.67329215284788 -19.3399052695533 M-11.907280759676768 -19.140403561325773 C-11.622830146443697 -19.186391330525844, -11.338379533210626 -19.232379099725915, -10.67329215284788 -19.3399052695533 M-10.67329215284788 -19.3399052695533 C-10.369108610661346 -19.369249490033802, -10.06492506847481 -19.3985937105143, -9.429056789623903 -19.45993515863156 M-10.67329215284788 -19.3399052695533 C-10.216303387040739 -19.383990426181313, -9.759314621233596 -19.428075582809328, -9.429056789623903 -19.45993515863156 M-9.429056789623903 -19.45993515863156 C-9.116641294507408 -19.469953715480074, -8.804225799390913 -19.479972272328588, -8.179687500000005 -19.5 M-9.429056789623903 -19.45993515863156 C-8.979920213840915 -19.474338094425608, -8.530783638057924 -19.488741030219657, -8.179687500000005 -19.5 M-8.179687500000005 -19.5 C-8.179687500000004 -19.5, -8.179687500000002 -19.5, -8.1796875 -19.5 M-8.179687500000005 -19.5 C-8.179687500000004 -19.5, -8.179687500000004 -19.5, -8.1796875 -19.5" stroke="#ccc" stroke-width="1.3" fill="none" stroke-dasharray="0 0" style="fill:#34495e !important"/></g><g class="label" style="color:#fff !important" transform="translate(-15.3046875, -12)"><rect/><foreignObject width="30.609375" height="24"><div style="color: rgb(255, 255, 255) !important; display: table-cell; white-space: nowrap; line-height: 1.5; max-width: 200px; text-align: center;" xmlns="http://www.w3.org/1999/xhtml"><span style="color:#fff !important" class="nodeLabel"><p>idea</p></span></div></foreignObject></g></g><g class="node default process" id="my-svg-flowchart-PROP-1" data-look="classic" transform="translate(186.93308639526367, 83)"><rect class="basic label-container" style="fill:#2980b9 !important" x="-73.59375" y="-39" width="147.1875" height="78"/><g class="label" style="color:#fff !important" transform="translate(-43.59375, -24)"><rect/><foreignObject width="87.1875" height="48"><div style="color: rgb(255, 255, 255) !important; display: table-cell; white-space: nowrap; line-height: 1.5; max-width: 200px; text-align: center;" xmlns="http://www.w3.org/1999/xhtml"><span style="color:#fff !important" class="nodeLabel"><p>Proposed<br />(Dev writes)</p></span></div></foreignObject></g></g><g class="node default process" id="my-svg-flowchart-REC-3" data-look="classic" transform="translate(592.7690238952637, 47)"><rect class="basic label-container" style="fill:#8e44ad !important" x="-82.2421875" y="-39" width="164.484375" height="78"/><g class="label" style="color:#fff !important" transform="translate(-52.2421875, -24)"><rect/><foreignObject width="104.484375" height="48"><div style="color: rgb(255, 255, 255) !important; display: table-cell; white-space: nowrap; line-height: 1.5; max-width: 200px; text-align: center;" xmlns="http://www.w3.org/1999/xhtml"><span style="color:#fff !important" class="nodeLabel"><p>Recommended<br />(Tech Lead)</p></span></div></foreignObject></g></g><g class="node default success" id="my-svg-flowchart-ACC-5" data-look="classic" transform="translate(876.7612113952637, 47)"><rect class="basic label-container" style="fill:#27ae60 !important" x="-63.453125" y="-39" width="126.90625" height="78"/><g class="label" style="color:#fff !important" transform="translate(-33.453125, -24)"><rect/><foreignObject width="66.90625" height="48"><div style="color: rgb(255, 255, 255) !important; display: table-cell; white-space: nowrap; line-height: 1.5; max-width: 200px; text-align: center;" xmlns="http://www.w3.org/1999/xhtml"><span style="color:#fff !important" class="nodeLabel"><p>Accepted<br />(CTO)</p></span></div></foreignObject></g></g><g class="node default hold" id="my-svg-flowchart-SUP-9" data-look="classic" transform="translate(1249.0893363952637, 47)"><rect class="basic label-container" style="fill:#f39c12 !important" x="-99.28125" y="-39" width="198.5625" height="78"/><g class="label" style="color:#fff !important" transform="translate(-69.28125, -24)"><rect/><foreignObject width="138.5625" height="48"><div style="color: rgb(255, 255, 255) !important; display: table-cell; white-space: nowrap; line-height: 1.5; max-width: 200px; text-align: center;" xmlns="http://www.w3.org/1999/xhtml"><span style="color:#fff !important" class="nodeLabel"><p>Superseded<br />(new ADR replaces)</p></span></div></foreignObject></g></g><g class="node default danger" id="my-svg-flowchart-REJ-11" data-look="classic" transform="translate(592.7690238952637, 175)"><rect class="basic label-container" style="fill:#e74c3c !important" x="-79.5234375" y="-39" width="159.046875" height="78"/><g class="label" style="color:#fff !important" transform="translate(-49.5234375, -24)"><rect/><foreignObject width="99.046875" height="48"><div style="color: rgb(255, 255, 255) !important; display: table-cell; white-space: nowrap; line-height: 1.5; max-width: 200px; text-align: center;" xmlns="http://www.w3.org/1999/xhtml"><span style="color:#fff !important" class="nodeLabel"><p>Rejected<br />(not adopted)</p></span></div></foreignObject></g></g></g></g><marker id="my-svg_flowchart-v2-pointEnd__27ae60" class="marker flowchart-v2" viewBox="0 0 10 10" refX="5" refY="5" markerUnits="userSpaceOnUse" markerWidth="8" markerHeight="8" orient="auto"><path d="M 0 0 L 10 5 L 0 10 z" class="arrowMarkerPath" style="stroke-width: 1; stroke-dasharray: 1, 0;" stroke="#27ae60" fill="#27ae60"/></marker><marker id="my-svg_flowchart-v2-pointEnd__e67e22" class="marker flowchart-v2" viewBox="0 0 10 10" refX="5" refY="5" markerUnits="userSpaceOnUse" markerWidth="8" markerHeight="8" orient="auto"><path d="M 0 0 L 10 5 L 0 10 z" class="arrowMarkerPath" style="stroke-width: 1; stroke-dasharray: 1, 0;" stroke="#e67e22" fill="#e67e22"/></marker><marker id="my-svg_flowchart-v2-pointEnd__f39c12" class="marker flowchart-v2" viewBox="0 0 10 10" refX="5" refY="5" markerUnits="userSpaceOnUse" markerWidth="8" markerHeight="8" orient="auto"><path d="M 0 0 L 10 5 L 0 10 z" class="arrowMarkerPath" style="stroke-width: 1; stroke-dasharray: 1, 0;" stroke="#f39c12" fill="#f39c12"/></marker><marker id="my-svg_flowchart-v2-pointEnd__e74c3c" class="marker flowchart-v2" viewBox="0 0 10 10" refX="5" refY="5" markerUnits="userSpaceOnUse" markerWidth="8" markerHeight="8" orient="auto"><path d="M 0 0 L 10 5 L 0 10 z" class="arrowMarkerPath" style="stroke-width: 1; stroke-dasharray: 1, 0;" stroke="#e74c3c" fill="#e74c3c"/></marker></g><defs><filter id="my-svg-drop-shadow" height="130%" width="130%"><feDropShadow dx="4" dy="4" stdDeviation="0" flood-opacity="0.06" flood-color="#FFFFFF"/></filter></defs><defs><filter id="my-svg-drop-shadow-small" height="150%" width="150%"><feDropShadow dx="2" dy="2" stdDeviation="0" flood-opacity="0.06" flood-color="#FFFFFF"/></filter></defs><linearGradient id="my-svg-gradient" gradientUnits="objectBoundingBox" x1="0%" y1="0%" x2="100%" y2="0%"><stop offset="0%" stop-color="#cccccc" stop-opacity="1"/><stop offset="100%" stop-color="hsl(180, 0%, 18.3529411765%)" stop-opacity="1"/></linearGradient></svg>